<!DOCTYPE svg PUBLIC "-//W3C//DTD SVG 1.1//EN" "http://www.w3.org/Graphics/SVG/1.1/DTD/svg11.dtd">
<!-- Uploaded to: SVG Repo, www.svgrepo.com, Transformed by: SVG Repo Mixer Tools -->
<svg height="800px" width="800px" version="1.1" id="Layer_1" xmlns="http://www.w3.org/2000/svg" xmlns:xlink="http://www.w3.org/1999/xlink" viewBox="0 0 512 512" xml:space="preserve" fill="#000000">
<g id="SVGRepo_bgCarrier" stroke-width="0"/>
<g id="SVGRepo_tracerCarrier" stroke-linecap="round" stroke-linejoin="round"/>
<g id="SVGRepo_iconCarrier"> <path d="M410.101,421.965H102.323C45.862,422.013,0.056,376.287,0,319.834c-0.04-45.758,30.324-85.968,74.353-98.449 c0-0.849,0-1.689,0-2.538c-0.032-71.103,57.582-128.781,128.684-128.813c50.641-0.024,96.591,29.643,117.421,75.802 c5.059-1.001,10.207-1.513,15.37-1.513c33.998-0.104,64.418,21.126,76.05,53.075c56.485,1.201,101.299,47.959,100.098,104.445 c-1.177,55.468-46.358,99.882-101.835,100.114L410.101,421.965z"/> <g> <path style="fill:#000000;" d="M46.147,234.282h104.488l21.678,21.67H489.73c-2.225-2.791-4.595-5.462-7.096-8.005H175.627 l-21.678-21.67H60.851C55.693,228.557,50.781,231.239,46.147,234.282z"/> <path style="fill:#000000;" d="M510.389,301.494H356.49l-24.072,24.072H89.026v8.005h246.706l24.072-24.072h151.692 C511.23,306.799,510.861,304.129,510.389,301.494z"/> </g> </g>
</svg>